# xmcd CD database file
#
# Track frame offsets:
#	150
#	21388
#	44139
#	63796
#	89399
#	112846
#	138860
#	158065
#	180069
#
# Disc length: 2560 seconds
#
# Revision: 0
# Processed by: cddbd v1.5.2PL0 Copyright (c) Steve Scherf et al.
# Submitted via: CDex 1.51
#
DISCID=6809fe09
DTITLE=Eric Le Lann - Life On Mars
DYEAR=2015
DGENRE=Jazz
TTITLE0=Rouge
TTITLE1=Nostalgeek Du Futur
TTITLE2=Bleu Avion
TTITLE3=Al. Got The Blues
TTITLE4=Danse Profane
TTITLE5=Everytime We Say Goodbye
TTITLE6=Rouge (Alternate)
TTITLE7=Twins Valse
TTITLE8=Life On Mars
EXTD=YEAR: 2015
EXTT0=
EXTT1=
EXTT2=
EXTT3=
EXTT4=
EXTT5=
EXTT6=
EXTT7=
EXTT8=
PLAYORDER=
